<?xml version="1.0" encoding="utf-8"?>
<!-- Generator: Adobe Illustrator 15.0.0, SVG Export Plug-In . SVG Version: 6.00 Build 0)  -->
<!DOCTYPE svg PUBLIC "-//W3C//DTD SVG 1.1//EN" "http://www.w3.org/Graphics/SVG/1.1/DTD/svg11.dtd">
<svg version="1.1" id="shield" xmlns="http://www.w3.org/2000/svg" xmlns:xlink="http://www.w3.org/1999/xlink" x="0px" y="0px"
	 width="1200px" height="1424.747px" viewBox="0 0 1200 1424.747" enable-background="new 0 0 1200 1424.747" xml:space="preserve">
<g opacity="0.42">
	<path fill="#D0D7E7" d="M598.47,648.687c37.93,0,75.848,0.133,113.707,0.374c0-40.187,0-80.384,0-120.564
		c-37.859-0.742-75.777-1.1-113.707-1.1C598.47,567.821,598.47,608.258,598.47,648.687z"/>
	<path fill="#D0D7E7" d="M258.709,651.922c-37.17,0.703-74.085,1.534-110.625,2.483c-36.216,37.064-72.083,72.271-107.484,104.922
		c-0.105,6.067,0.139,12.048,0.308,18.025c0.115,3.645,0.115,7.343,0.31,10.928c0.46,7.966,1.167,15.9,2.084,23.772
		c0.311,2.604,0.733,5.162,1.079,7.757c0.879,6.366,1.804,12.707,2.95,18.939c0.264,1.385,0.526,2.752,0.792,4.111
		c0.701,3.625,1.602,7.131,2.395,10.746C118.566,794.743,188.162,725.833,258.709,651.922z"/>
	<path fill="#D0D7E7" d="M484.362,649.061c-37.903,0.239-75.705,0.62-113.345,1.052c-99.749,105.924-198.21,205.621-293.779,285.185
		c11.097,25.617,24.324,50.287,39.311,74.018C236.098,911.092,359.747,782.168,484.362,649.061z"/>
	<path fill="#D0D7E7" d="M166.105,1077.531c18.278,22.145,37.833,43.191,58.137,63.139
		c122.596-104.017,248.404-236.597,374.227-370.699c0-40.44,0-80.865,0-121.284c-0.105,0-0.21,0-0.305,0
		C452.456,804.027,306.787,961.002,166.105,1077.531z"/>
	<path fill="#D0D7E7" d="M289.382,1199.004c23.505,19.3,47.267,37.182,70.67,53.465c78.926-72.492,158.685-154.596,238.417-239.588
		c0-40.493,0-80.95,0-121.453C494.837,1001.888,391.232,1109.393,289.382,1199.004z"/>
	<path fill="#D0D7E7" d="M435.444,1300.855c28.683,16.902,55.296,30.922,78.428,41.922c0.284,0.111,0.565,0.245,0.832,0.353
		c27.892-28.229,55.842-57.395,83.766-87.175c0-40.504,0-81.002,0-121.493C544.039,1192.492,489.616,1248.643,435.444,1300.855z"/>
	<path fill="#D0D7E7" d="M243.652,453.093c21.995-19.839,44.029-39.746,66.125-59.661c22.057,14.33,44.189,29.148,66.345,44.38
		c-8.512-27.188-16.929-54.317-25.434-81.209c22.154-19.801,44.372-39.583,66.567-59.229c-27.471,2.76-54.922,5.967-82.21,9.594
		c-8.439-26.667-16.904-53.174-25.269-79.464c-8.438,29.011-16.88,57.921-25.295,86.732c-27.209,4.221-54.429,8.854-81.465,13.912
		c21.893,12.541,43.886,25.689,65.86,39.329C260.504,396.142,252.068,424.699,243.652,453.093z"/>
	<path fill="#D0D7E7" d="M892.604,884.354c-8.334-26.753-16.693-53.678-25.109-80.714c-8.361,28.153-16.746,56.379-25.108,84.732
		c-27.114,2.003-54.32,3.705-81.574,5.163c22.03,16.151,44.044,31.994,66.035,47.473c-8.399,28.427-16.75,56.953-25.149,85.564
		c21.988-19.096,43.948-38.213,65.797-57.399c21.932,14.982,43.796,29.511,65.621,43.577c-8.349-26.17-16.669-52.52-25.026-79.026
		c21.857-19.143,43.627-38.22,65.378-57.211C946.591,879.384,919.622,882.003,892.604,884.354z"/>
	<path fill="#D0D7E7" d="M1196.899,758.758V116.401l-26.096-9.962C988.387,36.939,795.858,1.71,598.47,1.71
		c-197.372,0-389.915,35.229-572.324,104.729l-26.083,9.962v641.665c-5.207,307.794,315.529,538.18,505.905,625.793
		c45.905,21.115,76.681,34.143,76.681,34.143l15.821,6.745l15.829-6.745c0,0,30.793-13.027,76.697-34.143
		C881.358,1296.246,1202.109,1065.86,1196.899,758.758z M825.364,295.169c0-39.418,0-78.857,0-118.292
		c37.565,4.468,74.947,9.995,112.074,16.672c0,38.178,0,76.398,0,114.574c37.121,5.196,74.005,11.266,110.521,18.156
		c0-36.46,0-72.903,0-109.348c36.535,8.896,72.672,18.892,108.403,30.036c0,34.216,0,68.433,0,102.647
		c-35.731-8.653-71.868-16.405-108.403-23.336c0,36.448,0,72.903,0,109.351c-36.516-4.919-73.399-9.227-110.521-12.937
		c0-38.181,0-76.37,0-114.57C900.312,302.965,862.93,298.645,825.364,295.169z M712.177,46.322
		c37.832,2.722,75.576,6.798,113.144,12.242c0,39.433,0,78.842,0,118.282c-37.571-4.469-75.294-7.774-113.144-10.023
		C712.177,126.643,712.177,86.487,712.177,46.322z M937.438,78.984c37.136,8.168,74.003,17.705,110.521,28.594
		c0,36.428,0,72.898,0,109.337c-36.516-8.915-73.399-16.714-110.521-23.381C937.438,155.377,937.438,117.172,937.438,78.984z
		 M825.494,58.588c3.172,0.46,6.341,0.937,9.51,1.417C831.835,59.527,828.666,59.046,825.494,58.588z M842.768,61.192
		c2.272,0.355,4.545,0.714,6.816,1.079C847.312,61.907,845.04,61.547,842.768,61.192z M861.125,64.171
		c1.324,0.223,2.65,0.44,3.975,0.667C863.775,64.612,862.449,64.394,861.125,64.171z M898.235,70.874
		c0.952,0.184,1.904,0.375,2.856,0.561C900.14,71.249,899.188,71.058,898.235,70.874z M914.109,74.035
		c1.701,0.347,3.402,0.698,5.103,1.051C917.512,74.733,915.811,74.383,914.109,74.035z M929.415,77.245
		c2.298,0.493,4.595,0.983,6.89,1.486C934.01,78.227,931.712,77.739,929.415,77.245z M1050.168,108.235
		c2.78,0.833,5.56,1.672,8.336,2.522C1055.728,109.909,1052.949,109.066,1050.168,108.235z M1068.296,113.788
		c1.61,0.504,3.222,1.001,4.83,1.511C1071.518,114.79,1069.906,114.291,1068.296,113.788z M1105.464,125.932
		c0.422,0.144,0.843,0.291,1.265,0.436C1106.307,126.223,1105.886,126.076,1105.464,125.932z M1121.439,131.487
		c0.887,0.313,1.773,0.628,2.659,0.943C1123.213,132.115,1122.326,131.801,1121.439,131.487z M1137.732,137.354
		c0.905,0.332,1.812,0.659,2.716,0.992C1139.544,138.013,1138.638,137.686,1137.732,137.354z M709.397,46.119
		c-2.833-0.199-5.666-0.391-8.499-0.574C703.731,45.729,706.564,45.92,709.397,46.119z M692.853,45.048
		c-2.6-0.156-5.199-0.314-7.799-0.457C687.653,44.733,690.253,44.893,692.853,45.048z M673.697,44.017
		c-2.527-0.12-5.054-0.236-7.581-0.344C668.644,43.781,671.17,43.897,673.697,44.017z M653.662,43.184
		c-2.023-0.071-4.048-0.128-6.072-0.191C649.614,43.055,651.639,43.113,653.662,43.184z M637.116,42.698
		c-2.039-0.05-4.078-0.095-6.117-0.137C633.038,42.603,635.077,42.649,637.116,42.698z M619.945,42.375
		c-1.752-0.024-3.504-0.053-5.256-0.071C616.441,42.322,618.193,42.351,619.945,42.375z M674.068,1347.042
		c-45.238,20.806-75.599,33.697-75.599,33.697s-30.336-12.892-75.587-33.697C369.258,1276.358,35.485,1058.356,40.587,758.74
		c0-16.451,0-72.731,0-101.177c0-2,0-4.239,0-5.927c0-169.119,0-338.213,0-507.333C219.196,76.249,408.839,42.213,598.47,42.213
		c0,40.44,0,80.86,0,121.301c37.93,0,75.848,1.147,113.707,3.34c0,40.188,0,80.366,0,120.524
		c37.85,1.743,75.572,4.329,113.144,7.792c0,39.429,0,78.868,0,118.295c-37.571-2.448-75.294-4.304-113.144-5.521
		c0-40.195,0-80.359,0-120.567c-37.859-1.703-75.777-2.59-113.707-2.59c0,40.438,0,80.865,0,121.302
		c37.93,0,75.848,0.635,113.707,1.867c0,40.164,0,80.344,0,120.538c37.85,0.736,75.572,1.833,113.144,3.31
		c0,39.446,0,78.871,0,118.307c37.58,0.472,74.977,1.086,112.118,1.795c0-38.199,0-76.41,0-114.608
		c-37.127-2.195-74.509-4.046-112.074-5.506c0-39.446,0-78.86,0-118.292c37.565,2.46,74.947,5.536,112.074,9.225
		c0,38.188,0,76.378,0,114.573c37.121,2.201,74.005,4.778,110.521,7.711c0-36.441,0-72.915,0-109.363
		c36.535,4.938,72.672,10.479,108.403,16.637c0,34.206,0,68.413,0,102.62c-35.731-3.645-71.868-6.974-108.403-9.894
		c0,36.436,0,72.915,0,109.369c36.535,0.947,72.672,1.998,108.403,3.185c0,28.46,0,84.726,0,101.177
		C1161.477,1058.324,827.693,1276.358,674.068,1347.042z"/>
</g>
</svg>
