<?xml version="1.0" encoding="utf-8"?>
<!-- Generator: Adobe Illustrator 15.0.0, SVG Export Plug-In . SVG Version: 6.00 Build 0)  -->
<!DOCTYPE svg PUBLIC "-//W3C//DTD SVG 1.1//EN" "http://www.w3.org/Graphics/SVG/1.1/DTD/svg11.dtd">
<svg version="1.1" xmlns="http://www.w3.org/2000/svg" xmlns:xlink="http://www.w3.org/1999/xlink" x="0px" y="0px"
	 width="167.504px" height="152.713px" viewBox="0 0 167.504 152.713" enable-background="new 0 0 167.504 152.713"
	 xml:space="preserve">
<g id="rethink_banner_back">
</g>
<g id="background">
</g>
<g id="med_blue">
</g>
<g id="white">
</g>
<g id="gold">
</g>
<g id="kinetic_banner">
</g>
<g id="kinetic">
</g>
<g id="highlights">
</g>
<g id="bevel_R">
</g>
<g id="bevel_L">
</g>
<g id="bevel_top">
</g>
<g id="rethink_banner">
	<g>
		<g>
			<path fill="#95ADD2" d="M167.503,73.133c-2.391-2.565-4.783-5.171-7.178-7.81c2.395-3.901,4.787-7.747,7.178-11.529
				c-7.246,1.7-14.501,3.518-21.762,5.423c2.832,2.243,5.66,4.462,8.488,6.65c0,3.665,0,7.33,0,10.994
				C158.659,75.592,163.083,74.348,167.503,73.133z"/>
			<path fill="#34679D" d="M154.23,65.881c-4.068,1.092-8.139,2.208-12.211,3.344c0-4.324,0-8.652,0-12.977
				C146.091,59.509,150.162,62.726,154.23,65.881z"/>
			<path fill="#95ADD2" d="M0,118c2.392-3.627,4.785-7.323,7.179-11.079C4.785,104.139,2.392,101.385,0,98.66
				c7.247-1.516,14.5-3.179,21.761-4.952c-2.83,3.676-5.659,7.301-8.487,10.859c0,3.665,0,7.33,0,10.994
				C8.846,116.437,4.421,117.252,0,118z"/>
			<path fill="#34679D" d="M13.274,104.583c4.068-0.88,8.138-1.804,12.211-2.766c0-4.328,0-8.655,0-12.98
				C21.412,94.199,17.342,99.458,13.274,104.583z"/>
		</g>
		<path fill="#003053" stroke="#003053" stroke-width="0.1207" stroke-miterlimit="10" d="M81.019,151.99
			c0,0-3.304-1.398-8.23-3.665c-20.429-9.402-54.85-34.126-54.291-67.157v-68.86l2.799-1.068C40.872,3.78,61.536,0,82.717,0
			c21.182,0,41.844,3.78,61.419,11.239l2.799,1.068v68.936c0.559,32.956-33.86,57.68-54.291,67.082
			c-4.926,2.267-8.229,3.665-8.229,3.665l-1.698,0.724L81.019,151.99z M82.717,4.346c-20.352,0-40.703,3.652-59.87,10.956
			c0,18.149,0,36.296,0,54.444c0,0.182,0,0.422,0,0.637c0,3.051,0,9.091,0,10.857c-0.547,32.152,35.271,55.548,51.758,63.134
			c4.855,2.233,8.112,3.615,8.112,3.615s3.256-1.381,8.112-3.615c16.486-7.586,52.305-30.984,51.758-63.134
			c0-1.767,0-7.803,0-10.857c0-0.215,0-0.455,0-0.637c0-18.148,0-36.295,0-54.444C123.419,7.999,103.068,4.346,82.717,4.346z"/>
		<linearGradient id="SVGID_1_" gradientUnits="userSpaceOnUse" x1="66.6797" y1="131.9521" x2="135.4168" y2="63.215">
			<stop  offset="0" style="stop-color:#1C426A"/>
			<stop  offset="0.4157" style="stop-color:#2D5E92"/>
			<stop  offset="0.7879" style="stop-color:#3973AF"/>
			<stop  offset="1" style="stop-color:#3E7BBA"/>
		</linearGradient>
		<path fill="url(#SVGID_1_)" d="M82.717,69.43c0,25.828,0,52.735,0,78.559c0,0,3.256-1.381,8.112-3.615
			c16.463-7.577,52.202-30.921,51.755-63.002c0-2.45,0-8.417,0-10.989C123.419,69.749,103.068,69.43,82.717,69.43z"/>
		<linearGradient id="SVGID_2_" gradientUnits="userSpaceOnUse" x1="23.8062" y1="71.3423" x2="86.7594" y2="8.3891">
			<stop  offset="0" style="stop-color:#34679D"/>
			<stop  offset="0.5329" style="stop-color:#3A73AF"/>
			<stop  offset="1" style="stop-color:#3E7BBA"/>
		</linearGradient>
		<path fill="url(#SVGID_2_)" d="M22.847,70.383c19.167-0.634,39.519-0.953,59.87-0.953c0-21.695,0-43.389,0-65.084
			c-20.352,0-40.703,3.652-59.87,10.956C22.847,33.663,22.847,52.022,22.847,70.383z"/>
		<path fill="#FFFFFF" d="M82.717,56.413c4.071,0,8.141,0.041,12.202,0.118c0,4.313,0,8.626,0,12.939
			c-4.062-0.026-8.131-0.041-12.202-0.041C82.717,65.091,82.717,60.752,82.717,56.413z M107.061,69.584
			c4.033,0.049,8.046,0.116,12.032,0.19c0-4.098,0-8.199,0-12.298c-3.985-0.235-7.999-0.434-12.032-0.592
			C107.061,61.118,107.061,65.351,107.061,69.584z M130.955,70.041c3.918,0.102,7.799,0.215,11.633,0.342c0-3.672,0-7.343,0-11.018
			c-3.834-0.391-7.715-0.747-11.633-1.061C130.955,62.214,130.955,66.129,130.955,70.041z M94.919,56.531
			c4.062,0.08,8.114,0.198,12.146,0.356c0-4.235,0-8.466,0-12.699c-4.032-0.264-8.084-0.462-12.146-0.594
			C94.919,47.905,94.919,52.218,94.919,56.531z M119.092,57.477c3.985,0.236,7.941,0.512,11.862,0.828c0-3.912,0-7.827,0-11.74
			c-3.921-0.528-7.877-0.99-11.862-1.386C119.092,49.277,119.092,53.376,119.092,57.477z M82.717,43.396
			c4.071,0,8.141,0.068,12.202,0.2c0-4.313,0-8.624,0-12.939c-4.062-0.184-8.131-0.278-12.202-0.278
			C82.717,34.717,82.717,39.056,82.717,43.396z M107.061,44.19c4.033,0.264,8.046,0.594,12.032,0.991c0-4.099,0-8.197,0-12.298
			c-3.985-0.554-7.999-1.019-12.032-1.392C107.061,35.724,107.061,39.958,107.061,44.19z M130.955,46.567
			c3.918,0.531,7.799,1.125,11.633,1.785c0-3.674,0-7.346,0-11.018c-3.834-0.929-7.715-1.761-11.633-2.504
			C130.955,38.743,130.955,42.655,130.955,46.567z M94.919,30.657c4.062,0.187,8.114,0.465,12.146,0.837c0-4.233,0-8.466,0-12.699
			c-4.032-0.479-8.084-0.835-12.146-1.075C94.919,22.033,94.919,26.346,94.919,30.657z M119.092,32.883
			c3.985,0.557,7.941,1.207,11.862,1.948c0-3.913,0-7.825,0-11.737c-3.921-0.955-7.877-1.792-11.862-2.509
			C119.092,24.683,119.092,28.784,119.092,32.883z M82.717,17.363c4.071,0,8.141,0.123,12.202,0.359c0-4.313,0-8.625,0-12.937
			c-4.062-0.292-8.131-0.439-12.202-0.439C82.717,8.685,82.717,13.024,82.717,17.363z M107.061,18.797
			c4.033,0.479,8.046,1.073,12.032,1.79c0-4.096,0-8.197,0-12.295c-3.985-0.879-7.999-1.608-12.032-2.191
			C107.061,10.333,107.061,14.564,107.061,18.797z M130.955,23.097c3.918,0.955,7.799,2.028,11.633,3.223c0-3.673,0-7.343,0-11.018
			c-3.834-1.462-7.715-2.775-11.633-3.943C130.955,15.27,130.955,19.184,130.955,23.097z"/>
		<path fill="#FFFFFF" d="M46.254,69.777c-3.988,0.076-7.949,0.166-11.871,0.267c-3.886,3.978-7.735,7.756-11.534,11.26
			c-0.012,0.651,0.014,1.292,0.033,1.934c0.012,0.392,0.012,0.788,0.033,1.172c0.05,0.856,0.125,1.708,0.224,2.552
			c0.033,0.28,0.078,0.554,0.116,0.832c0.094,0.684,0.193,1.363,0.316,2.033c0.028,0.148,0.057,0.294,0.084,0.44
			c0.076,0.389,0.172,0.767,0.257,1.153C31.216,85.103,38.684,77.708,46.254,69.777z"/>
		<path fill="#FFFFFF" d="M70.471,69.471c-4.068,0.026-8.125,0.066-12.164,0.113C47.603,80.951,37.036,91.65,26.78,100.189
			c1.191,2.747,2.611,5.396,4.219,7.942C43.827,97.59,57.097,83.754,70.471,69.471z"/>
		<path fill="#FFFFFF" d="M82.717,82.446c0-4.339,0-8.679,0-13.016c-0.012,0-0.024,0-0.033,0
			c-15.638,16.67-31.271,33.515-46.368,46.021c1.962,2.377,4.061,4.636,6.24,6.777C55.712,111.065,69.213,96.837,82.717,82.446z"/>
		<path fill="#FFFFFF" d="M82.717,108.513c0-4.346,0-8.688,0-13.033c-11.122,11.854-22.24,23.391-33.171,33.007
			c2.523,2.071,5.073,3.99,7.584,5.738C65.601,126.445,74.159,117.635,82.717,108.513z"/>
		<path fill="#FFFFFF" d="M82.717,134.6c0-4.347,0-8.693,0-13.039c-5.841,6.228-11.683,12.253-17.495,17.856
			c3.077,1.814,5.933,3.318,8.416,4.5c0.03,0.012,0.061,0.026,0.089,0.038C76.72,140.924,79.719,137.795,82.717,134.6z"/>
		<linearGradient id="SVGID_3_" gradientUnits="userSpaceOnUse" x1="41.1479" y1="120.8198" x2="140.7813" y2="21.1865">
			<stop  offset="0" style="stop-color:#EABA09"/>
			<stop  offset="0.492" style="stop-color:#F2C912"/>
			<stop  offset="1" style="stop-color:#F8D418"/>
		</linearGradient>
		<path fill="url(#SVGID_3_)" d="M94.919,56.531c4.062,0.08,8.114,0.198,12.146,0.356c0,4.231,0,8.466,0,12.697
			c-4.032-0.052-8.084-0.09-12.146-0.113C94.919,65.155,94.919,60.844,94.919,56.531z M119.092,69.774
			c3.985,0.076,7.941,0.166,11.862,0.267c0-3.912,0-7.827,0-11.736c-3.921-0.316-7.877-0.592-11.862-0.828
			C119.092,61.575,119.092,65.676,119.092,69.774z M82.717,56.413c4.071,0,8.141,0.041,12.202,0.118c0-4.313,0-8.626,0-12.938
			c-4.062-0.132-8.131-0.201-12.202-0.201C82.717,47.735,82.717,52.074,82.717,56.413z M107.061,56.885
			c4.033,0.158,8.046,0.356,12.032,0.592c0-4.101,0-8.199,0-12.298c-3.985-0.398-7.999-0.729-12.032-0.991
			C107.061,48.419,107.061,52.654,107.061,56.885z M130.955,58.305c3.918,0.313,7.799,0.669,11.633,1.061c0-3.671,0-7.343,0-11.015
			c-3.834-0.663-7.715-1.257-11.633-1.786C130.955,50.478,130.955,54.393,130.955,58.305z M94.919,43.596
			c4.062,0.13,8.114,0.33,12.146,0.594c0-4.23,0-8.466,0-12.696c-4.032-0.373-8.084-0.65-12.146-0.837
			C94.919,34.97,94.919,39.283,94.919,43.596z M119.092,45.181c3.985,0.396,7.941,0.858,11.862,1.386c0-3.913,0-7.824,0-11.736
			c-3.921-0.741-7.877-1.392-11.862-1.948C119.092,36.984,119.092,41.083,119.092,45.181z M82.717,30.378
			c4.071,0,8.141,0.095,12.202,0.278c0-4.311,0-8.624,0-12.937c-4.062-0.238-8.131-0.359-12.202-0.359
			C82.717,21.7,82.717,26.04,82.717,30.378z M107.061,31.491c4.033,0.373,8.046,0.837,12.032,1.392c0-4.099,0-8.2,0-12.298
			c-3.985-0.714-7.999-1.313-12.032-1.79C107.061,23.025,107.061,27.258,107.061,31.491z M130.955,34.831
			c3.918,0.743,7.799,1.575,11.633,2.504c0-3.674,0-7.343,0-11.017c-3.834-1.196-7.715-2.269-11.633-3.224
			C130.955,27.006,130.955,30.918,130.955,34.831z M94.919,17.722c4.062,0.24,8.114,0.596,12.146,1.075c0-4.233,0-8.464,0-12.697
			c-4.032-0.584-8.084-1.023-12.146-1.315C94.919,9.098,94.919,13.409,94.919,17.722z M119.092,20.587
			c3.985,0.719,7.941,1.552,11.862,2.51c0-3.913,0-7.827,0-11.737c-3.921-1.169-7.877-2.193-11.862-3.068
			C119.092,12.39,119.092,16.491,119.092,20.587z M22.847,81.307c0,0,0,0,0.002-0.002c0-0.021-0.002-0.042-0.002-0.063
			C22.847,81.259,22.847,81.287,22.847,81.307z M34.383,70.044c-3.886,0.099-7.735,0.214-11.536,0.339c0,3.051,0,9.091,0,10.857
			c0,0.021,0.002,0.042,0.002,0.063C26.648,77.8,30.497,74.022,34.383,70.044z M58.307,69.584c-4.04,0.052-8.061,0.116-12.053,0.193
			c-7.57,7.931-15.038,15.326-22.342,21.644c0.076,0.339,0.146,0.684,0.229,1.023c0.085,0.359,0.188,0.708,0.28,1.061
			c0.623,2.288,1.417,4.516,2.358,6.684C37.036,91.65,47.603,80.951,58.307,69.584z M82.684,69.43
			c-4.075,0-8.148,0.015-12.213,0.041C57.097,83.754,43.827,97.59,30.999,108.131c1.608,2.544,3.396,4.988,5.317,7.32
			C51.414,102.945,67.046,86.101,82.684,69.43z M82.717,95.48c0-4.344,0-8.69,0-13.034c-13.503,14.392-27.004,28.619-40.16,39.783
			c2.261,2.222,4.612,4.306,6.989,6.259C60.477,118.875,71.595,107.332,82.717,95.48z M82.717,121.562c0-4.349,0-8.7,0-13.048
			c-8.558,9.122-17.116,17.932-25.586,25.712c2.783,1.941,5.508,3.671,8.091,5.192C71.034,133.817,76.875,127.789,82.717,121.562z
			 M73.727,143.955l0.003,0.007c0.292,0.137,0.594,0.283,0.875,0.413c4.855,2.233,8.112,3.615,8.112,3.615c0-4.1,0-9.284,0-13.389
			C79.719,137.795,76.72,140.924,73.727,143.955z"/>
		<linearGradient id="SVGID_4_" gradientUnits="userSpaceOnUse" x1="82.7173" y1="184.21" x2="82.7173" y2="-44.2242">
			<stop  offset="0" style="stop-color:#002141"/>
			<stop  offset="0.0359" style="stop-color:#002243"/>
			<stop  offset="0.5031" style="stop-color:#003053"/>
			<stop  offset="0.5671" style="stop-color:#013256"/>
			<stop  offset="0.8528" style="stop-color:#05395E"/>
			<stop  offset="0.9222" style="stop-color:#073C62"/>
			<stop  offset="0.9919" style="stop-color:#0D456E"/>
			<stop  offset="1" style="stop-color:#0E4670"/>
		</linearGradient>
		<path fill="url(#SVGID_4_)" d="M22.847,49.143c-0.014,0.005-0.031,0.009-0.045,0.014c0,17.593,0,35.185,0,52.775
			c0.08,0.184,0.167,0.363,0.25,0.545c1.424-0.335,2.851-0.703,4.277-1.047c38.387-9.235,76.93-21.691,115.303-32.343
			c0-17.793,0-35.588,0-53.381C102.765,23.73,62.714,36.778,22.847,49.143z"/>
		<g>
			<g>
				<path fill="#34679D" d="M46.058,87.619c-2.174-6.086-4.348-12.144-6.522-18.16c2.056-6.914,4.112-13.871,6.168-20.863
					c-1.705,0.521-3.407,1.04-5.11,1.561c-0.796,1.064-1.594,2.125-2.393,3.183c-0.552,1.965-1.108,3.927-1.663,5.885
					c0-2.611,0-5.219,0-7.83c-1.616,0.493-3.231,0.983-4.847,1.474c-0.796,1.052-1.594,2.106-2.388,3.156
					c0,12.814,0,25.631,0,38.446c1.613-0.406,3.229-0.818,4.843-1.233c0.797-1.019,1.594-2.042,2.392-3.068c0-1.292,0-2.587,0-3.879
					c0.658,1.934,1.313,3.872,1.97,5.813c1.719-0.45,3.438-0.908,5.157-1.368C44.464,89.699,45.262,88.66,46.058,87.619z"/>
				<path fill="#34679D" d="M55.664,84.969c0-13.137,0-26.272,0-39.41c-1.615,0.493-3.231,0.983-4.846,1.476
					c-0.8,1.071-1.597,2.139-2.394,3.207c0,13.069,0,26.139,0,39.208c1.615-0.439,3.23-0.882,4.846-1.331
					C54.069,87.07,54.866,86.023,55.664,84.969z"/>
				<path fill="#34679D" d="M59.62,46.853c0,13.166,0,26.332,0,39.5c1.5-0.422,3-0.844,4.5-1.269
					c0.797-1.061,1.596-2.123,2.393-3.184c0-0.576,0-1.151,0-1.727c0.231,1.344,0.462,2.687,0.691,4.031
					c1.823-0.521,3.647-1.044,5.471-1.568c0.796-1.066,1.596-2.132,2.393-3.198c0-13.239,0-26.476,0-39.715
					c-1.497,0.443-2.997,0.889-4.497,1.337c-0.797,1.073-1.597,2.148-2.394,3.221c0,0.557,0,1.115,0,1.672
					c-0.231-1.32-0.462-2.646-0.693-3.966c-1.826,0.547-3.648,1.094-5.469,1.646C61.216,44.707,60.419,45.78,59.62,46.853z"/>
				<path fill="#34679D" d="M79.029,41.068c0,13.244,0,26.489,0,39.734c3.426-0.993,6.85-1.993,10.276-2.991
					c0.8-1.07,1.597-2.138,2.397-3.208c0-1.753,0-3.507,0-5.259c-1.809,0.524-3.621,1.052-5.43,1.578c0-3.281,0-6.563,0-9.844
					c0.231-0.068,0.465-0.134,0.697-0.202c0.797-1.066,1.597-2.134,2.393-3.2c0-1.754,0-3.509,0-5.264
					c-1.029,0.297-2.059,0.594-3.09,0.892c0-3.026,0-6.051,0-9.077c1.012-0.292,2.023-0.583,3.033-0.873
					c0.8-1.066,1.597-2.129,2.397-3.193c0-1.754,0-3.506,0-5.261c-3.428,0.972-6.854,1.958-10.28,2.958
					C80.625,38.927,79.826,39.998,79.029,41.068z"/>
				<path fill="#34679D" d="M93.844,36.8c0,1.754,0,3.506,0,5.259c1.177-0.333,2.352-0.665,3.528-0.995c0,11.463,0,22.927,0,34.39
					c1.618-0.469,3.236-0.941,4.853-1.412c0.798-1.066,1.597-2.132,2.394-3.193c0-10.598,0-21.193,0-31.792
					c0.38-0.101,0.758-0.204,1.137-0.308c0.796-1.05,1.597-2.097,2.393-3.139c0-1.743,0-3.485,0-5.228
					c-3.969,1.054-7.939,2.136-11.911,3.243C95.441,34.683,94.642,35.741,93.844,36.8z"/>
				<path fill="#34679D" d="M110.825,32.162c0,13.128,0,26.254,0,39.382c1.617-0.464,3.231-0.932,4.85-1.396
					c0.798-1.054,1.595-2.108,2.394-3.16c0-13.058,0-26.115,0-39.172c-1.618,0.406-3.234,0.819-4.851,1.236
					C112.42,30.084,111.621,31.122,110.825,32.162z"/>
				<path fill="#34679D" d="M136.125,36.439c0-1.358,0-2.716,0-4.075c0.004-5.888-1.919-8.421-5.765-7.532
					c-2.267,0.526-3.865,1.913-4.837,4.105c-2.328,1.634-3.506,4.75-3.504,9.341c0,7.023,0,14.048,0,21.071
					c0,5.997,1.983,8.421,5.949,7.306c2.188-0.616,3.73-2.038,4.675-4.209c2.315-1.667,3.481-4.757,3.481-9.33
					c0-1.761,0-3.521,0-5.28c-1.553,0.394-3.109,0.792-4.664,1.198c-0.735,1-1.469,2.009-2.201,3.018c0-3.83,0-7.66,0-11.489
					c1.492-0.378,2.984-0.748,4.478-1.114C134.535,38.443,135.33,37.439,136.125,36.439z"/>
			</g>
			<g>
				<path fill="#FFFFFF" d="M31.691,91.431c0-12.855,0-25.709,0-38.562c1.616-0.49,3.231-0.981,4.847-1.474
					c0,4.375,0,8.751,0,13.128c1.352-4.771,2.705-9.56,4.056-14.366c1.703-0.521,3.406-1.04,5.11-1.561
					c-2.056,6.99-4.112,13.949-6.168,20.863c2.174,6.016,4.349,12.074,6.522,18.16c-1.719,0.468-3.438,0.932-5.158,1.392
					c-1.455-4.304-2.907-8.591-4.362-12.857c0,4.672,0,9.343,0,14.015C34.922,90.593,33.307,91.013,31.691,91.431z"/>
				<path fill="#FFFFFF" d="M50.817,86.315c0-13.095,0-26.188,0-39.281c1.615-0.493,3.231-0.986,4.846-1.476
					c0,13.138,0,26.273,0,39.41C54.048,85.422,52.433,85.869,50.817,86.315z"/>
				<path fill="#FFFFFF" d="M67.308,67.681c-0.264-1.976-0.53-3.95-0.794-5.926c0,6.717,0,13.43,0,20.146
					c-1.5,0.427-3,0.856-4.497,1.28c-0.002-13.182-0.002-26.365,0-39.547c1.821-0.552,3.643-1.099,5.469-1.646
					c0.778,4.459,1.559,8.926,2.337,13.395c0.25,1.934,0.5,3.868,0.75,5.804c0-6.709,0-13.417,0-20.125
					c1.5-0.448,3-0.894,4.497-1.337c0,13.239,0,26.476,0,39.715c-1.823,0.528-3.646,1.052-5.469,1.575
					C68.836,76.566,68.072,72.121,67.308,67.681z"/>
				<path fill="#FFFFFF" d="M86.272,58.566c0,4.118,0,8.235,0,12.355c1.809-0.526,3.621-1.054,5.43-1.578c0,1.752,0,3.506,0,5.259
					c-3.428,1-6.854,1.997-10.28,2.995c0-13.249,0-26.492,0-39.741c3.426-1,6.852-1.988,10.28-2.958c0,1.755,0,3.507,0,5.261
					c-1.809,0.515-3.621,1.033-5.43,1.554c0,3.863,0,7.726,0,11.588c1.031-0.297,2.061-0.595,3.09-0.892c0,1.754,0,3.509,0,5.264
					C88.333,57.972,87.303,58.269,86.272,58.566z"/>
				<path fill="#FFFFFF" d="M96.239,33.624c3.972-1.106,7.942-2.188,11.911-3.243c0,1.743,0,3.485,0,5.228
					c-1.177,0.313-2.354,0.632-3.53,0.953c0,11.428,0,22.858,0,34.286c-1.618,0.467-3.235,0.938-4.853,1.407
					c0-11.453,0-22.908,0-34.361c-1.175,0.326-2.351,0.656-3.528,0.986C96.239,37.128,96.239,35.375,96.239,33.624z"/>
				<path fill="#FFFFFF" d="M113.218,68.369c0-13.104,0-26.211,0-39.318c1.617-0.417,3.233-0.83,4.851-1.236
					c0,13.057,0,26.115,0,39.172C116.451,67.447,114.835,67.907,113.218,68.369z"/>
				<path fill="#FFFFFF" d="M131.46,49.035c1.555-0.406,3.111-0.805,4.664-1.198c0,1.759,0,3.519,0,5.28
					c0.004,5.898-1.919,9.36-5.765,10.424c-3.964,1.103-5.95-1.328-5.95-7.309c0-7.009,0-14.017,0-21.026
					c0-5.978,1.986-9.454,5.95-10.374c3.844-0.886,5.769,1.641,5.765,7.532c0,1.359,0,2.717,0,4.075
					c-1.553,0.371-3.109,0.748-4.664,1.129c0-2.139,0-4.282,0-6.423c-0.002-0.965-0.367-1.359-1.101-1.184
					c-0.735,0.174-1.104,0.745-1.101,1.711c0,8.53,0,17.06,0,25.592c-0.004,0.964,0.365,1.346,1.101,1.146
					c0.733-0.198,1.101-0.78,1.101-1.74C131.46,54.126,131.46,51.579,131.46,49.035z"/>
			</g>
		</g>
		<path fill="#FFFFFF" d="M52.34,13.609c0.715,2.169,1.43,4.358,2.144,6.563c2.32-0.321,4.646-0.602,6.978-0.842
			c-1.887,1.639-3.769,3.29-5.648,4.943c0.719,2.223,1.438,4.459,2.157,6.711c-1.882-1.25-3.759-2.466-5.631-3.636
			c-1.875,1.663-3.742,3.323-5.605,4.98c0.712-2.354,1.424-4.721,2.137-7.098c-1.865-1.113-3.726-2.179-5.58-3.193
			c2.29-0.448,4.592-0.856,6.902-1.227C50.909,18.42,51.624,16.019,52.34,13.609z"/>
		<path fill="#FFFFFF" d="M109.397,104.337c0.718,2.197,1.436,4.383,2.153,6.55c2.319-0.413,4.627-0.855,6.928-1.318
			c-1.859,1.771-3.728,3.546-5.601,5.325c0.714,2.153,1.426,4.29,2.142,6.412c-1.871-0.993-3.746-2.031-5.623-3.104
			c-1.879,1.781-3.761,3.563-5.648,5.339c0.72-2.467,1.439-4.922,2.157-7.372c-1.883-1.12-3.772-2.271-5.664-3.452
			c2.341-0.337,4.673-0.698,7-1.083C107.962,109.193,108.678,106.759,109.397,104.337z"/>
		<linearGradient id="SVGID_5_" gradientUnits="userSpaceOnUse" x1="118.1782" y1="32.9146" x2="139.1995" y2="11.8933">
			<stop  offset="0.3374" style="stop-color:#FFFFFF;stop-opacity:0"/>
			<stop  offset="1" style="stop-color:#FFFFFF;stop-opacity:0.54"/>
		</linearGradient>
		<path fill="url(#SVGID_5_)" d="M129.148,24.537c14.152,17.512,13.444,32.671,13.484,32.832c0-14.015,0-28.028,0-42.042
			c-14.631-5.573-29.95-9.018-45.435-10.339C97.19,4.655,114.946,6.499,129.148,24.537z"/>

			<linearGradient id="SVGID_6_" gradientUnits="userSpaceOnUse" x1="12.5981" y1="32.8931" x2="33.6194" y2="11.8718" gradientTransform="matrix(-1 0 0 1 59.9023 0)">
			<stop  offset="0.3374" style="stop-color:#231F20;stop-opacity:0"/>
			<stop  offset="1" style="stop-color:#231F20;stop-opacity:0.37"/>
		</linearGradient>
		<path fill="url(#SVGID_6_)" d="M36.333,24.514C22.179,42.031,22.894,57.177,22.851,57.345c0-14.015,0-28.027,0-42.042
			C37.479,9.73,52.798,6.285,68.28,4.964C68.29,4.632,50.536,6.476,36.333,24.514z"/>
		<linearGradient id="SVGID_7_" gradientUnits="userSpaceOnUse" x1="114.8296" y1="152.7134" x2="114.8296" y2="12.3071">
			<stop  offset="0" style="stop-color:#04375C"/>
			<stop  offset="0.0887" style="stop-color:#083D64"/>
			<stop  offset="0.2209" style="stop-color:#0A3F67"/>
			<stop  offset="0.3557" style="stop-color:#144772"/>
			<stop  offset="0.6441" style="stop-color:#265584"/>
			<stop  offset="0.8528" style="stop-color:#2C5A8A"/>
			<stop  offset="0.9083" style="stop-color:#2E5D8E"/>
			<stop  offset="0.9642" style="stop-color:#32659A"/>
			<stop  offset="1" style="stop-color:#376EA6"/>
		</linearGradient>
		<path fill="url(#SVGID_7_)" d="M146.935,12.307v68.936c0.559,32.956-33.86,57.68-54.291,67.082
			c-4.926,2.267-8.229,3.665-8.229,3.665l-1.698,0.724v-4.724c0,0,3.256-1.381,8.112-3.615
			c16.486-7.586,52.305-30.984,51.758-63.134c0-1.767,0-7.803,0-10.857c0-0.215,0-0.455,0-0.637c0-18.148,0-36.295,0-54.444
			L146.935,12.307z"/>
		<linearGradient id="SVGID_8_" gradientUnits="userSpaceOnUse" x1="50.604" y1="152.7134" x2="50.604" y2="12.3071">
			<stop  offset="0" style="stop-color:#003053"/>
			<stop  offset="0.1204" style="stop-color:#04365C"/>
			<stop  offset="0.4049" style="stop-color:#0C436C"/>
			<stop  offset="0.4471" style="stop-color:#0D446E"/>
			<stop  offset="0.7423" style="stop-color:#104A76"/>
			<stop  offset="0.8433" style="stop-color:#144C78"/>
			<stop  offset="0.9448" style="stop-color:#20527F"/>
			<stop  offset="1" style="stop-color:#2A5785"/>
		</linearGradient>
		<path fill="url(#SVGID_8_)" d="M22.847,15.302c0,18.149,0,36.296,0,54.444c0,0.182,0,0.422,0,0.637c0,3.051,0,9.091,0,10.857
			c-0.547,32.152,35.271,55.548,51.758,63.134c4.855,2.233,8.112,3.615,8.112,3.615v4.724l-1.698-0.724c0,0-3.304-1.398-8.23-3.665
			c-20.429-9.402-54.85-34.126-54.291-67.157v-68.86L22.847,15.302z"/>
		<linearGradient id="SVGID_9_" gradientUnits="userSpaceOnUse" x1="50.6079" y1="44.4165" x2="114.8262" y2="-19.8018">
			<stop  offset="0" style="stop-color:#2F6092"/>
			<stop  offset="0.2644" style="stop-color:#326599"/>
			<stop  offset="0.6564" style="stop-color:#34679D"/>
			<stop  offset="0.7677" style="stop-color:#356AA1"/>
			<stop  offset="0.8797" style="stop-color:#3A72AD"/>
			<stop  offset="0.9917" style="stop-color:#4081C1"/>
			<stop  offset="1" style="stop-color:#4182C3"/>
		</linearGradient>
		<path fill="url(#SVGID_9_)" d="M18.498,12.307l2.799-1.068C40.872,3.78,61.536,0,82.717,0c21.182,0,41.844,3.78,61.419,11.239
			l2.799,1.068l-4.348,2.995C123.419,7.999,103.068,4.346,82.717,4.346s-40.703,3.652-59.87,10.956L18.498,12.307z"/>
		<path fill="#D0D7E7" d="M154.244,85.733c-46.878,14.149-94.062,30.157-140.941,38.715c0-6.61,0-13.22,0-19.831
			c46.879-10.149,94.062-26.154,140.941-38.712C154.244,72.513,154.244,79.125,154.244,85.733z"/>
		<g>
			<path fill="#003053" d="M34.401,116.062c-0.212-1.941-0.424-3.86-0.726-5.761c-0.188,0.047-0.384,0.089-0.575,0.137
				c0,1.977,0,3.948,0,5.924c-0.47,0.106-0.937,0.215-1.409,0.321c0-4.384,0-8.771,0-13.157c0.647-0.155,1.293-0.313,1.937-0.469
				c1.455-0.354,2.195,0.101,2.195,1.837c0,0.891,0,1.785,0,2.676c0.003,1-0.257,1.639-0.816,2.111c0.361,2,0.651,4.049,0.925,6.023
				C35.422,115.821,34.913,115.944,34.401,116.062z M34.401,105.546c0-0.801-0.103-1.167-0.773-1
				c-0.174,0.043-0.354,0.085-0.528,0.128c0,1.474,0,2.948,0,4.417c0.179-0.042,0.363-0.085,0.542-0.127
				c0.532-0.128,0.759-0.449,0.759-1.033C34.401,107.136,34.401,106.341,34.401,105.546z"/>
			<path fill="#003053" d="M37.948,115.229c0-4.415,0-8.831,0-13.246c1.118-0.281,2.238-0.566,3.359-0.851c0,0.502,0,1.007,0,1.504
				c-0.657,0.165-1.312,0.332-1.965,0.498c0,1.417,0,2.834,0,4.252c0.437-0.111,0.875-0.217,1.313-0.325c0,0.502,0,1.002,0,1.501
				c-0.438,0.106-0.877,0.217-1.313,0.326c0,1.512,0,3.016,0,4.525c0.679-0.163,1.361-0.328,2.042-0.493c0,0.493,0,0.988,0,1.486
				C40.238,114.685,39.089,114.958,37.948,115.229z"/>
			<path fill="#003053" d="M44.32,113.69c0-3.943,0-7.886,0-11.827c-0.432,0.111-0.866,0.224-1.3,0.334c0-0.5,0-1.002,0-1.504
				c1.333-0.342,2.665-0.688,3.996-1.04c0,0.505,0,1.012,0,1.512c-0.432,0.115-0.868,0.229-1.302,0.337c0,3.948,0,7.894,0,11.839
				C45.252,113.456,44.787,113.571,44.32,113.69z"/>
			<path fill="#003053" d="M51.503,111.871c0-2.025,0-4.049,0-6.077c-0.392,0.108-0.786,0.208-1.179,0.311c0,2.023,0,4.047,0,6.07
				c-0.464,0.12-0.929,0.238-1.394,0.354c0-4.459,0-8.919,0-13.381c0.465-0.125,0.93-0.242,1.394-0.368c0,1.945,0,3.887,0,5.827
				c0.394-0.104,0.788-0.205,1.179-0.312c0-1.943,0-3.889,0-5.832c0.467-0.123,0.934-0.25,1.396-0.373c0,4.474,0,8.947,0,13.418
				C52.438,111.633,51.971,111.751,51.503,111.871z"/>
			<path fill="#003053" d="M55.234,110.902c0-4.48,0-8.961,0-13.439c0.465-0.127,0.929-0.252,1.394-0.38c0,4.486,0,8.972,0,13.452
				C56.163,110.657,55.699,110.78,55.234,110.902z"/>
			<path fill="#003053" d="M61.922,109.117c-0.938-4.396-1.41-6.464-1.839-8.544c0.033,1.844,0.033,3.686,0.033,5.544
				c0,1.163,0,2.325,0,3.488c-0.399,0.109-0.797,0.215-1.196,0.321c0-4.49,0-8.98,0-13.47c0.545-0.151,1.089-0.3,1.634-0.451
				c0.821,4.771,1.182,6.735,1.562,8.735c-0.033-1.535-0.028-3.059-0.028-4.57c0-1.53,0-3.061,0-4.587
				c0.398-0.111,0.797-0.222,1.195-0.33c0,4.495,0,8.994,0,13.494C62.827,108.872,62.375,108.997,61.922,109.117z"/>
			<path fill="#003053" d="M68.68,107.256c-0.62-2.042-1.181-4.059-1.759-6.046c0.033,1.073,0.028,2.226,0.028,3.688
				c0,0.948,0,1.896,0,2.844c-0.469,0.129-0.938,0.257-1.408,0.387c0-4.504,0-9.009,0-13.513c0.469-0.129,0.941-0.259,1.408-0.394
				c0,0.93,0,1.861,0,2.791c0.005,1.329,0.005,2.136-0.028,2.966c0.562-2.097,1.12-4.16,1.714-6.233c0.5-0.142,1.003-0.28,1.5-0.422
				c-0.67,2.222-1.335,4.443-2.002,6.662c0.717,2.273,1.434,4.552,2.151,6.827C69.749,106.964,69.216,107.11,68.68,107.256z"/>
			<path fill="#003053" d="M78.064,104.603c-0.208-1.98-0.425-3.945-0.724-5.881c-0.191,0.054-0.385,0.108-0.578,0.163
				c0,2.03,0,4.061,0,6.094c-0.47,0.134-0.938,0.266-1.411,0.405c0-4.518,0-9.032,0-13.552c0.646-0.184,1.292-0.371,1.94-0.557
				c1.456-0.42,2.196,0.028,2.196,1.806c0,0.917,0,1.83,0,2.75c0,1.021-0.254,1.688-0.811,2.19c0.355,2.042,0.648,4.13,0.92,6.141
				C79.087,104.311,78.576,104.459,78.064,104.603z M78.064,93.805c-0.002-0.821-0.104-1.191-0.772-1
				c-0.179,0.052-0.355,0.104-0.53,0.158c0,1.514,0,3.025,0,4.542c0.184-0.054,0.363-0.108,0.547-0.16
				c0.53-0.148,0.755-0.495,0.755-1.087C78.064,95.439,78.064,94.619,78.064,93.805z"/>
			<path fill="#003053" d="M81.615,103.583c0-4.521,0-9.037,0-13.56c1.123-0.321,2.241-0.653,3.363-0.981c0,0.514,0,1.026,0,1.54
				c-0.656,0.186-1.311,0.379-1.967,0.568c0,1.45,0,2.9,0,4.351c0.439-0.13,0.877-0.257,1.316-0.387c0,0.509,0,1.023,0,1.533
				c-0.439,0.129-0.877,0.257-1.316,0.384c0,1.542,0,3.084,0,4.629c0.681-0.198,1.363-0.396,2.047-0.597c0,0.504,0,1.009,0,1.516
				C83.908,102.913,82.762,103.247,81.615,103.583z"/>
			<path fill="#003053" d="M89.482,97.263c0.002-0.585-0.104-0.877-0.439-1.241c-0.56-0.604-1.132-1.066-1.743-1.823
				c-0.3-0.375-0.376-0.932-0.376-1.608c0-0.672,0-1.349,0-2.024c0-1.516,0.651-2.429,1.985-2.82
				c1.396-0.41,1.925,0.159,1.922,1.669c0,0.826,0,1.651,0,2.474c-0.437,0.128-0.869,0.253-1.305,0.383c0-0.816,0-1.634,0-2.453
				c0.003-0.427-0.165-0.675-0.586-0.549c-0.409,0.118-0.594,0.394-0.592,0.877c0,0.669,0,1.341,0,2.009
				c0,0.368,0.047,0.629,0.243,0.854c0.557,0.623,1.209,1.166,1.759,1.818c0.422,0.524,0.528,1.079,0.528,2.004
				c0,0.644,0,1.293,0,1.939c0.003,1.436-0.573,2.408-1.969,2.825c-1.377,0.406-1.991-0.227-1.985-1.658c0-0.962,0-1.919,0-2.882
				c0.448-0.132,0.898-0.262,1.351-0.398c0,0.962,0,1.922,0,2.881c-0.004,0.446,0.193,0.672,0.588,0.552
				c0.424-0.125,0.622-0.429,0.62-0.91C89.482,98.541,89.482,97.901,89.482,97.263z"/>
			<path fill="#003053" d="M93.791,99.996c0-4.002,0-8.001,0-12.006c-0.432,0.127-0.865,0.257-1.302,0.384c0-0.512,0-1.019,0-1.533
				c1.336-0.392,2.668-0.785,4.004-1.177c0,0.51,0,1.02,0,1.531c-0.436,0.127-0.873,0.255-1.306,0.385c0,3.999,0,7.999,0,12.003
				C94.722,99.717,94.258,99.856,93.791,99.996z"/>
			<path fill="#003053" d="M98.16,87.322c-0.001-1.502,0.651-2.488,1.984-2.887c1.346-0.396,2,0.21,1.997,1.705
				c0,3.066,0,6.134,0,9.202c0,1.488-0.649,2.493-1.997,2.898c-1.333,0.403-1.984-0.206-1.984-1.703
				C98.16,93.466,98.16,90.393,98.16,87.322z M100.75,86.551c0-0.502-0.199-0.706-0.605-0.585c-0.38,0.108-0.593,0.431-0.593,0.943
				c0,3.071,0,6.141,0,9.211c0,0.526,0.213,0.726,0.593,0.608c0.407-0.123,0.605-0.444,0.605-0.972
				C100.75,92.689,100.75,89.622,100.75,86.551z"/>
			<path fill="#003053" d="M107.056,96.001c-0.211-1.964-0.424-3.91-0.727-5.834c-0.189,0.056-0.386,0.116-0.575,0.174
				c0,2.021,0,4.04,0,6.058c-0.47,0.142-0.938,0.283-1.407,0.427c0-4.498,0-8.989,0-13.484c0.643-0.191,1.291-0.384,1.936-0.573
				c1.456-0.434,2.198,0.005,2.198,1.767c0,0.91,0,1.818,0,2.73c0,1.017-0.262,1.679-0.815,2.191
				c0.361,2.019,0.646,4.089,0.924,6.08C108.077,95.689,107.565,95.845,107.056,96.001z M107.056,85.271
				c0-0.819-0.106-1.182-0.773-0.981c-0.175,0.052-0.354,0.106-0.528,0.158c0,1.505,0,3.012,0,4.516
				c0.179-0.054,0.366-0.108,0.545-0.163c0.531-0.158,0.757-0.502,0.757-1.096C107.056,86.896,107.056,86.08,107.056,85.271z"/>
			<path fill="#003053" d="M113.571,94.017c-0.074-0.665-0.15-1.334-0.224-2c-0.511,0.153-1.018,0.309-1.532,0.462
				c-0.09,0.726-0.164,1.438-0.24,2.144c-0.453,0.144-0.908,0.282-1.361,0.42c0.538-4.646,1.08-9.282,1.621-13.92
				c0.537-0.158,1.077-0.316,1.617-0.477c0.512,4.317,1.02,8.633,1.531,12.941C114.51,93.73,114.043,93.876,113.571,94.017z
				 M113.193,90.678c-0.208-1.938-0.426-3.912-0.604-5.911c-0.181,2.103-0.396,4.209-0.638,6.289
				C112.367,90.928,112.782,90.801,113.193,90.678z"/>
			<path fill="#003053" d="M117.336,92.871c0-3.953,0-7.907,0-11.859c-0.437,0.125-0.868,0.255-1.305,0.386c0-0.507,0-1.007,0-1.512
				c1.332-0.396,2.667-0.788,4-1.182c0,0.505,0,1.004,0,1.509c-0.431,0.13-0.869,0.26-1.304,0.385c0,3.95,0,7.896,0,11.848
				C118.262,92.586,117.8,92.728,117.336,92.871z"/>
			<path fill="#003053" d="M121.974,91.451c0-4.438,0-8.878,0-13.314c0.459-0.137,0.925-0.271,1.387-0.408c0,4.431,0,8.869,0,13.3
				C122.898,91.169,122.433,91.31,121.974,91.451z"/>
			<path fill="#003053" d="M125.606,79.182c0.001-1.467,0.646-2.446,1.979-2.838c1.346-0.389,1.998,0.208,1.998,1.67
				c0,3.002,0,6.006,0,9.006c0,1.464-0.65,2.445-1.998,2.858c-1.33,0.405-1.979-0.181-1.979-1.648
				C125.606,85.212,125.606,82.198,125.606,79.182z M128.195,78.425c-0.006-0.5-0.197-0.7-0.609-0.578
				c-0.377,0.111-0.586,0.429-0.586,0.927c0,3.014,0,6.022,0,9.034c-0.002,0.519,0.209,0.705,0.586,0.59
				c0.412-0.121,0.609-0.437,0.609-0.953C128.195,84.438,128.195,81.431,128.195,78.425z"/>
			<path fill="#003053" d="M134.751,87.556c-0.938-4.254-1.409-6.259-1.834-8.273c0.035,1.797,0.031,3.604,0.035,5.411
				c0,1.139,0,2.273,0,3.405c-0.399,0.125-0.798,0.243-1.197,0.365c0-4.393,0-8.787,0-13.18c0.545-0.161,1.09-0.318,1.632-0.472
				c0.816,4.637,1.182,6.542,1.56,8.471c-0.031-1.495-0.027-2.979-0.031-4.447c0-1.486,0-2.976,0-4.466
				c0.401-0.114,0.799-0.227,1.196-0.342c0,4.37,0,8.742,0,13.114C135.66,87.275,135.204,87.415,134.751,87.556z"/>
		</g>
	</g>
</g>
</svg>
