<?xml version="1.0" encoding="utf-8"?>
<!-- Generator: Adobe Illustrator 15.0.0, SVG Export Plug-In . SVG Version: 6.00 Build 0)  -->
<!DOCTYPE svg PUBLIC "-//W3C//DTD SVG 1.1//EN" "http://www.w3.org/Graphics/SVG/1.1/DTD/svg11.dtd">
<svg version="1.1" id="shield" xmlns="http://www.w3.org/2000/svg" xmlns:xlink="http://www.w3.org/1999/xlink" x="0px" y="0px"
	 width="216px" height="216px" viewBox="0 0 216 216" enable-background="new 0 0 216 216" xml:space="preserve">
<path fill="#FFFFFF" stroke="#FFFFFF" stroke-width="0.1585" stroke-miterlimit="10" d="M105.77,207.288
	c0,0-4.336-1.835-10.803-4.811c-26.82-12.343-72.005-44.799-71.272-88.161V23.919l3.675-1.403
	c25.698-9.792,52.823-14.754,80.628-14.754c27.809,0,54.932,4.963,80.631,14.754l3.676,1.403v90.495
	c0.734,43.265-44.453,75.721-71.271,88.063c-6.467,2.976-10.805,4.811-10.805,4.811l-2.23,0.95L105.77,207.288z M107.998,13.467
	c-26.715,0-53.432,4.795-78.594,14.382c0,23.826,0,47.647,0,71.473c0,0.238,0,0.553,0,0.835c0,4.007,0,11.936,0,14.253
	c-0.719,42.21,46.303,72.922,67.946,82.88c6.375,2.932,10.648,4.747,10.648,4.747s4.277-1.815,10.65-4.747
	c21.643-9.958,68.666-40.675,67.945-82.88c0-2.317,0-10.244,0-14.253c0-0.282,0-0.597,0-0.835c0-23.826,0-47.647,0-71.473
	C161.432,18.262,134.715,13.467,107.998,13.467z"/>
<g>
	<path fill="#FFFFFF" d="M107.998,81.82c5.344,0,10.686,0.05,16.02,0.155c0,5.661,0,11.324,0,16.985
		c-5.334-0.034-10.676-0.053-16.02-0.053C107.998,93.211,107.998,87.515,107.998,81.82z M139.957,99.108
		c5.295,0.066,10.562,0.153,15.795,0.253c0-5.381,0-10.765,0-16.146c-5.232-0.31-10.5-0.57-15.795-0.776
		C139.957,87.997,139.957,93.551,139.957,99.108z M171.322,99.709c5.146,0.133,10.238,0.282,15.271,0.449c0-4.818,0-9.64,0-14.463
		c-5.033-0.513-10.125-0.982-15.271-1.394C171.322,89.434,171.322,94.573,171.322,99.709z M124.018,81.975
		c5.334,0.104,10.65,0.258,15.945,0.467c0-5.56,0-11.114,0-16.672c-5.295-0.345-10.611-0.606-15.945-0.778
		C124.018,70.65,124.018,76.312,124.018,81.975z M155.752,83.215c5.23,0.31,10.426,0.673,15.57,1.086c0-5.135,0-10.274,0-15.41
		c-5.145-0.693-10.34-1.3-15.57-1.822C155.752,72.451,155.752,77.833,155.752,83.215z M107.998,64.73
		c5.344,0,10.686,0.089,16.02,0.263c0-5.663,0-11.322,0-16.987c-5.334-0.24-10.676-0.365-16.02-0.365
		C107.998,53.338,107.998,59.033,107.998,64.73z M139.957,65.774c5.295,0.346,10.562,0.78,15.795,1.3c0-5.38,0-10.762,0-16.145
		c-5.232-0.727-10.5-1.336-15.795-1.826C139.957,54.66,139.957,60.217,139.957,65.774z M171.322,68.894
		c5.146,0.696,10.238,1.477,15.271,2.344c0-4.823,0-9.645,0-14.464c-5.033-1.219-10.125-2.311-15.271-3.288
		C171.322,58.622,171.322,63.759,171.322,68.894z M124.018,48.006c5.334,0.246,10.65,0.61,15.945,1.099c0-5.555,0-11.112,0-16.669
		c-5.295-0.63-10.611-1.096-15.945-1.413C124.018,36.686,124.018,42.347,124.018,48.006z M155.752,50.929
		c5.23,0.732,10.426,1.587,15.57,2.558c0-5.137,0-10.272,0-15.407c-5.145-1.256-10.34-2.355-15.57-3.294
		C155.752,40.165,155.752,45.55,155.752,50.929z M107.998,30.556c5.344,0,10.686,0.162,16.02,0.471c0-5.663,0-11.322,0-16.983
		c-5.334-0.384-10.676-0.577-16.02-0.577C107.998,19.165,107.998,24.859,107.998,30.556z M139.957,32.438
		c5.295,0.629,10.562,1.408,15.795,2.35c0-5.377,0-10.76,0-16.141c-5.232-1.154-10.5-2.112-15.795-2.876
		C139.957,21.327,139.957,26.88,139.957,32.438z M171.322,38.082c5.146,1.253,10.238,2.662,15.271,4.231c0-4.823,0-9.64,0-14.463
		c-5.033-1.92-10.125-3.645-15.271-5.175C171.322,27.808,171.322,32.947,171.322,38.082z"/>
	<g>
		<path fill="#FFFFFF" d="M60.133,99.363c-5.236,0.099-10.437,0.216-15.584,0.35c-5.102,5.222-10.155,10.182-15.143,14.782
			c-0.015,0.855,0.02,1.697,0.043,2.54c0.016,0.513,0.016,1.034,0.044,1.54c0.064,1.122,0.164,2.24,0.293,3.349
			c0.043,0.367,0.103,0.727,0.152,1.093c0.124,0.896,0.254,1.79,0.416,2.668c0.037,0.195,0.074,0.388,0.111,0.579
			c0.099,0.511,0.226,1.005,0.337,1.514C40.39,119.483,50.194,109.775,60.133,99.363z"/>
		<path fill="#FFFFFF" d="M91.923,98.959c-5.34,0.034-10.665,0.088-15.968,0.148c-14.053,14.922-27.924,28.968-41.388,40.177
			c1.563,3.608,3.427,7.084,5.538,10.428C56.947,135.875,74.367,117.712,91.923,98.959z"/>
		<path fill="#FFFFFF" d="M107.998,115.994c0-5.697,0-11.393,0-17.087c-0.015,0-0.029,0-0.043,0
			c-20.527,21.885-41.049,43.999-60.868,60.416c2.575,3.12,5.33,6.085,8.19,8.895C72.549,153.564,90.272,134.886,107.998,115.994z"
			/>
		<path fill="#FFFFFF" d="M107.998,150.215c0-5.705,0-11.405,0-17.11c-14.6,15.562-29.195,30.707-43.544,43.331
			c3.312,2.719,6.659,5.238,9.956,7.532C85.529,173.755,96.766,162.188,107.998,150.215z"/>
		<path fill="#FFFFFF" d="M107.998,184.459c0-5.706,0-11.411,0-17.116c-7.668,8.176-15.335,16.086-22.967,23.441
			c4.041,2.381,7.79,4.356,11.049,5.906c0.04,0.016,0.08,0.035,0.117,0.05C100.127,192.763,104.064,188.654,107.998,184.459z"/>
	</g>
</g>
<path fill="#FFFFFF" d="M63.764,51.79c-3.833,0.595-7.668,1.247-11.477,1.96c3.084,1.767,6.183,3.619,9.278,5.541
	c-1.18,4.039-2.368,8.062-3.554,12.062c3.099-2.795,6.203-5.6,9.315-8.405c3.107,2.019,6.226,4.106,9.347,6.252
	c-1.199-3.831-2.385-7.652-3.583-11.441c3.121-2.79,6.251-5.576,9.378-8.344c-3.87,0.389-7.737,0.84-11.582,1.352
	c-1.188-3.757-2.381-7.491-3.56-11.195C66.139,43.658,64.949,47.73,63.764,51.79z"/>
<path fill="#FFFFFF" d="M142.361,132.674c-3.82,0.282-7.652,0.522-11.492,0.728c3.104,2.275,6.205,4.507,9.303,6.688
	c-1.184,4.004-2.359,8.023-3.543,12.054c3.098-2.69,6.191-5.383,9.27-8.086c3.09,2.111,6.17,4.158,9.244,6.139
	c-1.176-3.686-2.348-7.398-3.525-11.133c3.08-2.697,6.146-5.384,9.211-8.06c-3.787,0.405-7.586,0.774-11.393,1.105
	c-1.174-3.77-2.352-7.562-3.537-11.371C144.721,124.703,143.539,128.68,142.361,132.674z"/>
<g>
	<path fill="#FFFFFF" d="M192.305,23.919v90.495c0.734,43.265-44.453,75.721-71.271,88.063c-6.467,2.976-10.805,4.811-10.805,4.811
		l-2.23,0.95v-6.2c0,0,4.277-1.815,10.65-4.747c21.643-9.958,68.666-40.675,67.945-82.88c0-2.317,0-10.244,0-14.253
		c0-0.282,0-0.597,0-0.835c0-23.826,0-47.647,0-71.473L192.305,23.919z"/>
	<path fill="#FFFFFF" d="M29.404,27.85c0,23.826,0,47.647,0,71.473c0,0.238,0,0.553,0,0.835c0,4.007,0,11.936,0,14.253
		c-0.719,42.21,46.303,72.922,67.946,82.88c6.375,2.932,10.648,4.747,10.648,4.747v6.2l-2.229-0.95c0,0-4.336-1.835-10.803-4.811
		c-26.82-12.343-72.005-44.799-71.272-88.161V23.919L29.404,27.85z"/>
	<path fill="#FFFFFF" d="M23.695,23.919l3.675-1.403c25.698-9.792,52.823-14.754,80.628-14.754c27.809,0,54.932,4.963,80.631,14.754
		l3.676,1.403l-5.711,3.931c-25.162-9.587-51.879-14.382-78.596-14.382c-26.715,0-53.432,4.795-78.594,14.382L23.695,23.919z"/>
</g>
</svg>
